<svg xmlns="http://www.w3.org/2000/svg" height="18" viewBox="0 0 160 18" width="160"><path d="m13.0801556 1.03968872 3.9595331 4.71906614v6.22568094l-4.0031128 4.7688716-6.11984438 1.0645914-5.36653697-3.1128404-1.55019455-4.2957199 1.97354086.1805448 1.03968871 2.8949416.27392996.155642.50428016-2.5836576 3.31828794-1.20778206c.19299611-.05603113 1.9922179-.65992218 1.55642023-3.46770428-.25641959-1.22054998.01246453-2.49266562.74085603-3.50505837.16374302-.21013246.34949502-.40214576.5540856-.57276264l-1.97976653-.35486382-.69105059-1.94241245zm-6.9416342 14.25680938.41712062-2.1291829 3.31206226-1.1828794c.19299612-.0498054 2.01712062-.6225681 1.56264592-3.43657588-.2656199-1.23045519.0036742-2.51582559.740856-3.53618677.2988228-.38031806.6662497-.70128869 1.0832685-.9463035l-.8093385-.97120623c-.6334635.08978982-1.2129373.4060675-1.6311284.89027238-.4149089.63399297-.5500428 1.41101289-.3735409 2.14785992.5478599 3.55486381-1.59377429 5.11750968-2.83891048 5.46614788l-2.24124514.8031128-.42957198 2.1914397zm9.1081712-3.9346304.0498055-4.88093385-.840467-1.00233463c-.3301916.13599026-.6227544.34953975-.8529183.6225681-.4149088.63399297-.5500427 1.41101289-.3735408 2.14785992.5478599 3.55486386-1.5937743 5.11750976-2.8389105 5.46614786l-2.24124516.8031128-.292607 1.3136187 4.22723736-.7346303zm18.5214008-2.29727626c1.4769879.68033113 2.3967584 2.18541016 2.3284047 3.81011676 0 3.2560311-1.9797666 4.9431906-6.225681 4.9431906h-6.2256809v-7.3027237l1.170428-.87159533v-9.56264592h6.4996109c1.9984436 0 3.4552529.54163424 4.3891051 1.45058366l-1.3011674.97743191.1431907-.10583658c.8445349.87085737 1.2946502 2.05015941 1.2451362 3.26225681.0384183 1.40505148-.7546523 2.70080681-2.0233463 3.30583658zm-4.9058366-5.55953307v3.16264591l-1.170428.90894942h2.2412451c1.2389105 0 1.7058366-.55408561 1.7058366-1.59377432.0330463-.41796684-.0913003-.83319545-.3486381-1.16420234l1.1642023-.86536965c-.364114-.33384148-.853151-.49685379-1.3447471-.44824902zm.6785992 10.88871593c1.581323 0 2.3533074-.429572 2.3533074-1.7805447 0-1.3509728-.7906615-1.7867705-2.1976653-1.7867705h-2.0233463v3.5673152zm74.235019-14.31284045h4.532296l-8.9774317 17.74941635h-4.5322957l3.7167315-7.3587549-5.2607004-10.39066145h4.6941634l.0622568.14941635 2.8451361 5.62178988zm-66.2972758 17.76809335v-17.76809335h10.2287938v3.59844358h-6.3439689v3.32451362h6.3439689v3.59844355h-6.3439689v3.6482491h6.3439689v3.5984435zm21.0988327-17.76809335 5.6031128 17.74941635h-4.3579766l-1.014786-3.47393h-4.4264591l-1.014786 3.47393h-4.4077821l5.6031128-17.74941635zm-.6225681 10.65836575-1.3198443-5.14863812h-.0996109l-1.3136187 5.14863812zm6.3252918 1.0832685v-11.74163425h4.2085604v11.51128405c0 1.6747082.5042801 2.7642023 2.4093385 2.7642023 1.9050583 0 2.4093385-1.0894941 2.4093385-2.7642023v-11.51128405h4.2085603v11.74163425c0 3.9284047-2.2287938 6.2256809-6.6178988 6.2256809-4.3891051 0-6.6178989-2.2972762-6.6178989-6.2256809zm28.0902724-11.74163425v3.8536965h-4.5883268v13.89571985h-4.2085603v-13.89571985h-4.6132296v-3.8536965zm47.421012 0 5.603113 17.74941635h-4.414008l-1.014786-3.47393h-4.414008l-1.014786 3.47393h-4.364202l5.603112-17.74941635zm-.622568 10.64591435-1.319845-5.14863808h-.099611l-1.350972 5.16108948h2.739299zm16.14319-10.64591435h4.532296l-8.977432 17.74941635h-4.532296l3.722958-7.3587549-5.260701-10.39066145h4.694164l.062256.14941635 2.838911 5.62178988zm-26.073151 14.23813225 1.170428.6287938c-.765759 1.87393-2.701946 2.8389105-5.920623 2.8389105h-6.225681v-9.21400775l-1.195331-.6225681v-7.85680934h6.543191c3.835019 0 5.702724 1.97976654 5.702724 4.78132296.040335 1.42015623-.760121 2.7306585-2.042024 3.34319066v.09338522c1.487596.69321935 2.411381 2.21402605 2.340856 3.85369645.015731.7354114-.111118 1.466909-.37354 2.1540856zm-8.093386-10.75797661v3.24357977h2.266148c1.245136 0 1.718288-.54163424 1.718288-1.61245136s-.473152-1.63112841-1.718288-1.63112841zm3.069261 10.76420231c1.419455 0 2.222568-.3361867 2.384436-1.3758755l-1.195331-.6225681c.009501-.1347224.009501-.2699468 0-.4046692 0-1.3634241-.796887-1.8054475-2.216342-1.8054475h-2.017121l1.170428.6225681v3.5859922z" fill="#000100"></path></svg>