<svg xmlns="http://www.w3.org/2000/svg" height="36" viewBox="0 0 36 36" width="36"><g><path d="m12.4168999 20.205714c-.319833.8219484-1.107166 1.3712091-1.9934713 1.3712091h-3.00380005l2.94094745 2.2561721c.6975307.535106.9996417 1.4458878.7675955 2.2858675l-.8563101 3.1678207 2.4710745-1.7960069c.7482925-.5494456 1.7658357-.5494456 2.5082447-.0042981l2.4769703 1.800305-.8541484-3.1598651c-.2342202-.8479353.0678908-1.7587171.7654103-2.2938145l2.9409586-2.2561807h-3.0038c-.8863053 0-1.6736383-.5492607-1.9934907-1.3712589l-1.5830807-4.0688357zm1.5831001-8.205714 2.981 7.6617692c.0974286.2503846.3331429.4151539.5955714.4151539h7.4234286l-6.4475714 4.9463077c-.2105715.1615384-.3048572.4426154-.2325715.7043077l1.9658572 7.2724615-5.9164286-4.3001538c-.22-.1615385-.5185714-.1615385-.7385714 0l-5.91642859 4.3001538 1.96585715-7.2724615c.07228571-.2616923-.022-.5427693-.23257143-.7043077l-6.44757143-4.9463077h7.4234286c.2624285 0 .4981428-.1647693.5955714-.4151539z"></path><path d="m25.3008072 8.38884516c-.2065324.50971149-.7024177.84192407-1.2516643.84192407h-1.0058041l1.0666438.78581307c.4505047.3318873.6502091.9100504.4963236 1.4449885l-.3148076 1.1183804.9308011-.6496709c.4655482-.3282712 1.0898524-.3282712 1.5514756-.0027535l.9347375.6524244-.3132611-1.1129056c-.1554434-.5404129.044261-1.118576.4947582-1.4504578l1.0666513-.78581857h-1.0058041c-.5492466 0-1.0451319-.33221258-1.2516781-.84195808l-.699179-1.72571986zm.6991928-4.38884516 1.626 4.01330769c.0531429.13115385.1817143.21746154.3248571.21746154h4.0491429l-3.5168571 2.59092307c-.1148572.0846154-.1662858.2318462-.1268572.3689231l1.0722857 3.8093846-3.2271428-2.2524615c-.12-.0846154-.2828572-.0846154-.4028572 0l-3.2271428 2.2524615 1.0722857-3.8093846c.0394286-.1370769-.012-.2843077-.1268572-.3689231l-3.5168571-2.59092307h4.0491429c.1431428 0 .2717142-.08630769.3248571-.21746154z"></path></g></svg>