<svg xmlns="http://www.w3.org/2000/svg" height="36" viewBox="0 0 36 36" width="36"><path d="m21.5453673 29.264184c-.0196318-.5129976-.0275105-1.0037533-.0219473-1.4494095.0049681-.3979743.0206828-.7482278.0482596-1.0476171.1737353-1.8861661.5165683-2.9692193 1.5862677-5.073941.4930347-.9700864 1.1129041-1.7579593 2.0165256-2.5995132.1012132-.0942611.279939-.2542115.5264775-.4722822l.0092293-.0081627c.199292-.1762403.5778347-.5088868.562381-.4950241.1316307-.1180795.2422354-.2207933.3403373-.3161945 1.2564802-3.4647644 1.1558738-8.69664624-.1606643-11.38998577-4.277681-1.04291443-10.3864397-1.19195873-12.9931319-.46998424-.0480285.01305644-.0480285.01305644-.1039885.02727876-.0401302.00991077-.0401302.00991077-.0904518.02214349-.0580082.01407968-.0580082.01407968-.0815137.01979831-.0616316.01515699-.1050425.02659021-.1456856.03828719-.0958827.02759474-.1653921.05383964-.2263235.08400621-.4041365.20008429-.6510143.7746097-.6270175 2.14250514l.012968.73922274-.5783819.46053536c-.7192251.57268151-.8937212 1.16763251-.6457612 2.27628761l.2287743 1.0228745-.8818455.5665319c-.44632053.2867337-.73844618 1.6213359-.43169533 2.1326397l.47702423.7951219-.4979883.7821627c-.20917349.3285373-.36685856.8688068-.3672159 1.2869149-.00084051.9906583.28992194 1.3531492 1.1907084 1.5082035.6012169.1034887 1.2951027.1720534 2.0756864.205177 1.214763.0515477 2.5701179.016772 3.9935837-.0952801.2519463-.0198326.494473-.0412945.7237769-.0638815l1.729135-.1703241-.0838403 1.7354795c-.0340357.7045345-.2303503 1.7727637-.5905744 3.1866894-.4850647 1.9039409.6511846 3.9474345 2.4636221 4.7785907.2513158.1152496.3826303.1020014.5482387-.0344467-.0016793-.0403159-.0033421-.0818975-.0049688-.1244038zm-3.9145703-7.8788095-1.5131456.1195608c-1.1537698.0701359-2.3146894.0921613-3.4148514.0454766-.8269264-.0350901-1.5869119-.1085813-2.266548-.2255685-1.65919721-.2856012-2.43768029-1.3056407-2.436252-2.9877388.00061216-.7176275.24751544-1.534618.60190529-2.0912386-.72069182-1.2012761-.22633756-3.4380999.90720671-4.1663328-.35251757-1.5761435-.06375293-2.79058879 1.1752399-3.77713422-.0340877-1.94311624.4801671-3.02735981 1.4612508-3.5130853.1003854-.04969991.4047585-.14730727.9131193-.29282206 2.6955851-.74659514 9.3089436-.72392094 14.1902082.57049078.1313843.03484046.2439685.12124558.313246.24040733 1.7807764 3.06305045 1.9072936 9.24963897.3801712 13.22211517-.0256652.0667623-1.509105 1.441652-1.7455834 1.6618872-.7542844.7024745-1.2802063 1.3522941-1.7016112 2.1814429-.9824181 1.9329886-1.2738234 2.8385787-1.4297962 4.5319054-.023921.2596997-.0042075 2.6912131.0013222 2.7845773.0062533.105582-.0188555.2106327-.0720421.3014113-.081122.1384582-.2223833.321836-.4297305.5038475-.5825599.5113771-1.3394072.6811112-2.1880742.2919254-2.2176505-1.0169808-4.017933-3.662707-3.2919249-6.5123819.0879027-.3450291.269866-1.3079443.5458899-2.8887455z"></path></svg>