<svg xmlns="http://www.w3.org/2000/svg" height="36" viewBox="0 0 36 36" width="36"><path d="m15.605751 13.9900095c-.3445108.8944031-1.1961758 1.4946059-2.157751 1.4946059h-5.06376227l4.74059847 3.6738994c.7509542.5819679 1.0750278 1.5689302.8261845 2.4789134l-1.3988838 5.2278153 4.0842304-2.9987619c.8107224-.6013601 1.916543-.6013601 2.7213849-.0043398l4.0901202 3.0031017-1.3967583-5.2199235c-.2509781-.917875.0730955-1.9048373.8240385-2.4867965l4.7406097-3.6739081h-5.0637623c-.9615752 0-1.8132402-.6002028-2.1577701-1.4946554l-2.3942299-6.21644456zm2.394249-10.3900095 3.794 9.8508462c.124.321923.424.5337692.758.5337692h9.448l-8.206 6.3595384c-.268.2076924-.388.569077-.296.9055385l2.502 9.3503077-7.53-5.5287692c-.28-.2076923-.66-.2076923-.94 0l-7.53 5.5287692 2.502-9.3503077c.092-.3364615-.028-.6978461-.296-.9055385l-8.206-6.3595384h9.448c.334 0 .634-.2118462.758-.5337692z"></path></svg>