<svg xmlns="http://www.w3.org/2000/svg" width="104" height="20" viewBox="0 0 104 20"><title>Icons/SVG/rating-stars</title><desc>Created with Sketch.</desc><g id="rating-stars" stroke="none" stroke-width="1" fill="none" fill-rule="evenodd"><g id="Group-4" transform="translate(-3.000000, -2.000000)" fill="#c9ccd4"><g id="Group-3" fill="#c9ccd4"><g id="star-filled" fill="#c9ccd4"><path d="M13,2.6 L15.7401111,9.7145 C15.8296667,9.947 16.0463333,10.1 16.2875556,10.1 L23.1111111,10.1 L17.1845556,14.693 C16.991,14.843 16.9043333,15.104 16.9707778,15.347 L18.7777778,22.1 L13.3394444,18.107 C13.1372222,17.957 12.8627778,17.957 12.6605556,18.107 L7.22222222,22.1 L9.02922222,15.347 C9.09566667,15.104 9.009,14.843 8.81544444,14.693 L2.88888889,10.1 L9.71244444,10.1 C9.95366667,10.1 10.1703333,9.947 10.2598889,9.7145 L13,2.6 Z" id="Combined-Shape" fill="#c9ccd4"></path></g></g><g id="Group-3" transform="translate(21.000000, 0.000000)" fill="#c9ccd4"><g id="star-filled" fill="#c9ccd4"><path d="M13,2.6 L15.7401111,9.7145 C15.8296667,9.947 16.0463333,10.1 16.2875556,10.1 L23.1111111,10.1 L17.1845556,14.693 C16.991,14.843 16.9043333,15.104 16.9707778,15.347 L18.7777778,22.1 L13.3394444,18.107 C13.1372222,17.957 12.8627778,17.957 12.6605556,18.107 L7.22222222,22.1 L9.02922222,15.347 C9.09566667,15.104 9.009,14.843 8.81544444,14.693 L2.88888889,10.1 L9.71244444,10.1 C9.95366667,10.1 10.1703333,9.947 10.2598889,9.7145 L13,2.6 Z" id="Combined-Shape" fill="#c9ccd4"></path></g></g><g id="Group-3" transform="translate(42.000000, 0.000000)" fill="#c9ccd4"><g id="star-filled" fill="#c9ccd4"><path d="M13,2.6 L15.7401111,9.7145 C15.8296667,9.947 16.0463333,10.1 16.2875556,10.1 L23.1111111,10.1 L17.1845556,14.693 C16.991,14.843 16.9043333,15.104 16.9707778,15.347 L18.7777778,22.1 L13.3394444,18.107 C13.1372222,17.957 12.8627778,17.957 12.6605556,18.107 L7.22222222,22.1 L9.02922222,15.347 C9.09566667,15.104 9.009,14.843 8.81544444,14.693 L2.88888889,10.1 L9.71244444,10.1 C9.95366667,10.1 10.1703333,9.947 10.2598889,9.7145 L13,2.6 Z" id="Combined-Shape" fill="#c9ccd4"></path></g></g><g id="Group-3" transform="translate(63.000000, 0.000000)" fill="#c9ccd4"><g id="star-filled" fill="#c9ccd4"><path d="M13,2.6 L15.7401111,9.7145 C15.8296667,9.947 16.0463333,10.1 16.2875556,10.1 L23.1111111,10.1 L17.1845556,14.693 C16.991,14.843 16.9043333,15.104 16.9707778,15.347 L18.7777778,22.1 L13.3394444,18.107 C13.1372222,17.957 12.8627778,17.957 12.6605556,18.107 L7.22222222,22.1 L9.02922222,15.347 C9.09566667,15.104 9.009,14.843 8.81544444,14.693 L2.88888889,10.1 L9.71244444,10.1 C9.95366667,10.1 10.1703333,9.947 10.2598889,9.7145 L13,2.6 Z" id="Combined-Shape" fill="#c9ccd4"></path></g></g><g id="Group-3" transform="translate(84.000000, 0.000000)" fill="#c9ccd4"><g id="star-filled" fill="#c9ccd4"><path d="M13,2.6 L15.7401111,9.7145 C15.8296667,9.947 16.0463333,10.1 16.2875556,10.1 L23.1111111,10.1 L17.1845556,14.693 C16.991,14.843 16.9043333,15.104 16.9707778,15.347 L18.7777778,22.1 L13.3394444,18.107 C13.1372222,17.957 12.8627778,17.957 12.6605556,18.107 L7.22222222,22.1 L9.02922222,15.347 C9.09566667,15.104 9.009,14.843 8.81544444,14.693 L2.88888889,10.1 L9.71244444,10.1 C9.95366667,10.1 10.1703333,9.947 10.2598889,9.7145 L13,2.6 Z" id="Combined-Shape" fill="#c9ccd4"></path></g></g></g></g></svg>