<svg xmlns="http://www.w3.org/2000/svg" height="30" viewBox="0 0 22 30" width="22" class="tier-one"><path d="m9.47765213 0 8.29294557 9.6v4.8l2.3694131-2.4 1.8599892 8.4492-4.0469575 5.7264c-1.319763 1.8684-3.2697899 3.1488-5.4911147 3.606l-.169413.036c-.5899838.1212-1.1858912.1824-1.7829833.1824-.4608508 0-.92288637-.036-1.3813678-.1092-2.28885298-.3612-4.32299407-1.5864-5.73042541-3.45l-3.39773829-4.8408 1.71071621-8.118 2.47485191 2.4096 2.92267098-8.6916 2.36941303-1.2zm-7.07980614 4.20408 1.07689822.3504-.19666128 6.3408-1.04017232.36-2.20355412-2.7048-.03435649-.7104z" fill-rule="evenodd" stroke="#ffffff" fill="#fae361" stroke-width="1.5px"></path></svg>