<svg xmlns="http://www.w3.org/2000/svg" height="36" viewBox="0 0 36 36" width="36"><path d="m15.4546327 5.73581603c.0196318.51299761.0275105 1.00375332.0219473 1.44940945-.0049681.3979743-.0206828.7482278-.0482596 1.04761711-.1737353 1.88616611-.5165683 2.96921931-1.5862677 5.07394101-.4930347.9700864-1.1129041 1.7579593-2.0165256 2.5995132-.1012132.0942611-.279939.2542115-.5264775.4722822l-.0092293.0081627c-.199292.1762403-.5778347.5088868-.562381.4950241-.1316307.1180795-.2422354.2207933-.3403373.3161945-1.25648016 3.4647644-1.15587385 8.6966462.1606643 11.3899858 4.277681 1.0429144 10.3864397 1.1919587 12.9931319.4699842.0480285-.0130564.0480285-.0130564.1039885-.0272787.0401302-.0099108.0401302-.0099108.0904518-.0221435.0580082-.0140797.0580082-.0140797.0815137-.0197983.0616316-.015157.1050425-.0265903.1456856-.0382872.0958827-.0275948.1653921-.0538397.2263235-.0840063.4041365-.2000842.6510143-.7746096.6270175-2.1425051l-.012968-.7392227.5783819-.4605354c.7192251-.5726815.8937212-1.1676325.6457612-2.2762876l-.2287743-1.0228745.8818455-.5665319c.4463205-.2867337.7384462-1.6213359.4316953-2.1326397l-.4770242-.7951219.4979883-.7821627c.2091735-.3285373.3668586-.8688068.3672159-1.2869149.0008405-.9906583-.2899219-1.3531492-1.1907084-1.5082035-.6012169-.1034887-1.2951027-.1720534-2.0756864-.205177-1.214763-.0515477-2.5701179-.016772-3.9935837.0952801-.2519463.0198326-.494473.0412945-.7237769.0638815l-1.729135.1703241.0838403-1.7354795c.0340357-.7045345.2303503-1.7727637.5905744-3.1866894.4850647-1.90394085-.6511846-3.94743451-2.4636221-4.77859072-.2513158-.11524961-.3826303-.10200133-.5482387.03444675.0016793.04031583.0033421.08189749.0049688.1244038zm3.9145703 7.87880947c1.0087637-.0797072 1.5131456-.1195608 1.5131456-.1195608 1.1537698-.0701359 2.3146894-.0921613 3.4148514-.0454766.8269264.0350901 1.5869119.1085813 2.266548.2255685 1.6591972.2856012 2.4376803 1.3056407 2.436252 2.9877388-.0006122.7176275-.2475154 1.534618-.6019053 2.0912386.7206918 1.2012761.2263376 3.4380999-.9072067 4.1663328.3525176 1.5761435.0637529 2.7905888-1.1752399 3.7771342.0340877 1.9431163-.4801671 3.0273598-1.4612508 3.5130853-.1003854.0496999-.4047585.1473073-.9131193.2928221-2.6955851.7465951-9.3089436.7239209-14.19020816-.5704908-.13138437-.0348405-.24396854-.1212456-.31324601-.2404073-1.78077642-3.0630505-1.9072936-9.249639-.3801712-13.2221152.02566517-.0667623 1.50910497-1.441652 1.74558337-1.6618872.7542844-.7024745 1.2802063-1.3522941 1.7016112-2.1814429.9824181-1.9329886 1.2738234-2.83857875 1.4297962-4.53190539.023921-.25969973.0042075-2.69121312-.0013222-2.78457727-.0062533-.10558207.0188555-.21063276.0720421-.30141132.081122-.13845824.2223833-.321836.4297305-.50384754.5825599-.51137706 1.3394072-.68111115 2.1880742-.29192533 2.2176505 1.01698071 4.017933 3.66270692 3.2919249 6.51238185-.0879027.3450291-.269866 1.3079443-.5458899 2.8887455z"></path></svg>