<svg xmlns="http://www.w3.org/2000/svg" height="36" viewBox="0 0 36 36" width="36" class="zoom"><path d="m14.9742058 14.0079501 5.5192627 4.6312112-.9641814 1.1490667-5.6293382-4.7235755c-1.468305 1.2091938-3.3493258 1.9353475-5.3999489 1.9353475-4.69442037 0-8.5-3.8055796-8.5-8.5 0-4.69442037 3.80557963-8.5 8.5-8.5 4.6944204 0 8.5 3.80557963 8.5 8.5 0 2.1012541-.7624546 4.0244273-2.0257942 5.5079501zm-5.9742058-6.0079501h3v1h-3v3h-1v-3h-3v-1h3v-3h1zm-.5 7.5c3.8659932 0 7-3.1340068 7-7 0-3.86599325-3.1340068-7-7-7-3.86599325 0-7 3.13400675-7 7 0 3.8659932 3.13400675 7 7 7z" fill-rule="evenodd" transform="translate(8 8)"></path></svg>